<svg width="37" height="33" viewBox="0 0 37 33" fill="none" xmlns="http://www.w3.org/2000/svg">
<path d="M8.05667 4.28004L8.04125 5.53337C8.02919 6.10405 7.7596 6.64803 7.29007 7.04913C6.82054 7.45023 6.18828 7.67666 5.52833 7.68004C5.29708 7.68004 5.15833 7.81337 5.15833 7.98671C5.15833 8.16004 5.3125 8.29337 5.51292 8.29337H3.03083C3.01542 8.20004 3 8.09337 3 7.98671C3 6.78671 4.12542 5.81337 5.4975 5.81337C5.72875 5.81337 5.88292 5.68004 5.88292 5.50671L5.89833 4.25337C5.91375 3.74671 6.39167 3.33337 6.9775 3.33337H6.99292C7.59417 3.33337 8.05667 3.76004 8.05667 4.28004Z" fill="#2A7AE4"/>
<path d="M25.5854 8.29333H11.2479C6.7 8.29333 3 11.4933 3 15.4267V22.8667C3 26.8 6.7 30 11.2479 30H25.5854C30.1333 30 33.8333 26.8 33.8333 22.8667V15.4267C33.8333 11.4933 30.1333 8.29333 25.5854 8.29333ZM22.2708 16.6933C22.2708 15.96 22.9646 15.36 23.8125 15.36C24.6604 15.36 25.3542 15.96 25.3542 16.6933C25.3542 17.4267 24.6604 18.04 23.8125 18.04C22.9646 18.04 22.2708 17.4533 22.2708 16.72V16.6933ZM15.5337 22.0933C15.3025 22.2933 15.0096 22.3867 14.7167 22.3867C14.4238 22.3867 14.1308 22.2933 13.8996 22.0933L12.3117 20.72L10.7854 22.04C10.5542 22.24 10.2612 22.3333 9.96833 22.3333C9.67542 22.3333 9.3825 22.24 9.15125 22.04C8.93622 21.8518 8.81563 21.5979 8.81563 21.3333C8.81563 21.0688 8.93622 20.8149 9.15125 20.6267L10.6775 19.3067L9.1975 18.0267C8.98247 17.8385 8.86188 17.5846 8.86188 17.32C8.86188 17.0554 8.98247 16.8015 9.1975 16.6133C9.64458 16.2267 10.3846 16.2267 10.8317 16.6133L12.3117 17.8933L13.8379 16.5733C14.285 16.1867 15.025 16.1867 15.4721 16.5733C15.9192 16.96 15.9192 17.6 15.4721 17.9867L13.9458 19.3067L15.5337 20.68C15.9808 21.0667 15.9808 21.7067 15.5337 22.0933ZM20.7908 20.6667C19.9429 20.6667 19.2337 20.0667 19.2337 19.3333C19.2337 18.6 19.9121 18 20.76 18H20.7908C21.6387 18 22.3325 18.6 22.3325 19.3333C22.3325 20.0667 21.6542 20.6667 20.7908 20.6667ZM23.8125 23.2933C22.9646 23.2933 22.2708 22.7067 22.2708 21.9733V21.9467C22.2708 21.2133 22.9646 20.6133 23.8125 20.6133C24.6604 20.6133 25.3542 21.2133 25.3542 21.9467C25.3542 22.68 24.6758 23.2933 23.8125 23.2933ZM26.865 20.6667C26.0171 20.6667 25.3079 20.0667 25.3079 19.3333C25.3079 18.6 25.9862 18 26.8342 18H26.865C27.7129 18 28.4067 18.6 28.4067 19.3333C28.4067 20.0667 27.7283 20.6667 26.865 20.6667Z" fill="#2A7AE4"/>
</svg>
